<?xml version="1.0" encoding="UTF-8"?><!DOCTYPE svg PUBLIC "-//W3C//DTD SVG 1.1//EN" "http://www.w3.org/Graphics/SVG/1.1/DTD/svg11.dtd"><svg xmlns="http://www.w3.org/2000/svg" version="1.1" width="48px" height="48px" style="shape-rendering:geometricPrecision; text-rendering:geometricPrecision; image-rendering:optimizeQuality; fill-rule:evenodd; clip-rule:evenodd" xmlns:xlink="http://www.w3.org/1999/xlink"><g><path style="opacity:0.853" fill="#f96422" d="M 22.5,-0.5 C 23.1667,-0.5 23.8333,-0.5 24.5,-0.5C 29.4906,4.73098 30.8239,10.8976 28.5,18C 29.1021,19.563 29.9354,19.3963 31,17.5C 33.1212,22.8589 34.6212,28.3589 35.5,34C 35.504,40.1464 32.8374,44.6464 27.5,47.5C 24.8333,47.5 22.1667,47.5 19.5,47.5C 13.9209,44.8571 11.2542,40.3571 11.5,34C 12.9449,25.6067 16.4449,18.1067 22,11.5C 24.9474,7.54284 25.1141,3.54284 22.5,-0.5 Z M 21.5,27.5 C 29.3394,28.1804 31.8394,32.1804 29,39.5C 25.3333,43.5 21.6667,43.5 18,39.5C 15.2553,34.2483 16.4219,30.2483 21.5,27.5 Z"/></g></svg>