<?xml version="1.0" encoding="UTF-8"?><svg version="1.1" xmlns="http://www.w3.org/2000/svg" width="32" height="32"><path d="M0 0 C10.56 0 21.12 0 32 0 C32 10.56 32 21.12 32 32 C21.44 32 10.88 32 0 32 C0 21.44 0 10.88 0 0 Z " fill="#FCDC00" transform="translate(0,0)"/><path d="M0 0 C7.95467422 -0.45892351 7.95467422 -0.45892351 11.5625 1.125 C13 3 13 3 13.4375 6.0625 C13.293125 7.031875 13.14875 8.00125 13 9 C9.77208445 11.1519437 8.71599191 11.20086443 5 11 C5 12.32 5 13.64 5 15 C5.66 15 6.32 15 7 15 C7 15.99 7 16.98 7 18 C4.69 18 2.38 18 0 18 C0 17.01 0 16.02 0 15 C0.66 15 1.32 15 2 15 C2 11.04 2 7.08 2 3 C1.34 3 0.68 3 0 3 C0 2.01 0 1.02 0 0 Z " fill="#050500" transform="translate(10,7)"/><path d="M0 0 C1.45792884 -0.05399736 2.91642712 -0.09279177 4.375 -0.125 C5.18710938 -0.14820313 5.99921875 -0.17140625 6.8359375 -0.1953125 C9 0 9 0 11 2 C10.34 2 9.68 2 9 2 C9.185625 2.969375 9.37125 3.93875 9.5625 4.9375 C9.706875 5.948125 9.85125 6.95875 10 8 C9 9 9 9 6.4375 9.0625 C5.633125 9.041875 4.82875 9.02125 4 9 C4 7.35 4 5.7 4 4 C2.68 3.67 1.36 3.34 0 3 C0 2.01 0 1.02 0 0 Z " fill="#413800" transform="translate(10,7)"/><path d="M0 0 C0.33 1.32 0.66 2.64 1 4 C1.66 4 2.32 4 3 4 C3 4.99 3 5.98 3 7 C0.69 7 -1.62 7 -4 7 C-4 4 -4 4 -2 1.8125 C-1.34 1.214375 -0.68 0.61625 0 0 Z " fill="#352E00" transform="translate(14,18)"/><path d="M0 0 C1.32 0.33 2.64 0.66 4 1 C4 2.98 4 4.96 4 7 C2.02 7.99 2.02 7.99 0 9 C0 6.03 0 3.06 0 0 Z " fill="#1B1700" transform="translate(19,9)"/><path d="M0 0 C2.475 0.495 2.475 0.495 5 1 C5 2.32 5 3.64 5 5 C3.35 5 1.7 5 0 5 C0 3.35 0 1.7 0 0 Z " fill="#F4D600" transform="translate(15,10)"/></svg>