<?xml version="1.0" encoding="UTF-8"?><svg version="1.1" xmlns="http://www.w3.org/2000/svg" width="192" height="192"><path d="M0 0 C2.33622371 1.3058484 4.63817773 2.63402188 6.9375 4 C8.18298534 4.7052078 9.43041024 5.40700036 10.6796875 6.10546875 C14.1188289 8.03665481 17.52887202 10.01538467 20.9375 12 C21.55270508 12.32564941 22.16791016 12.65129883 22.80175781 12.98681641 C26.36746503 14.900282 28.80501369 16.45574831 30.8125 20 C31.39644531 20.99 31.39644531 20.99 31.9921875 22 C33.77973776 25.78192452 34.06583421 29.19789813 34.08467102 33.35575867 C34.09182632 34.44209091 34.09898163 35.52842316 34.10635376 36.64767456 C34.10904266 37.83475006 34.11173157 39.02182556 34.11450195 40.24487305 C34.12107315 41.49896469 34.12764435 42.75305634 34.13441467 44.04515076 C34.15414579 48.20067586 34.16581398 52.35616238 34.17578125 56.51171875 C34.17983068 57.94538708 34.18394765 59.37905522 34.18813133 60.81272316 C34.20717456 67.55046251 34.22140651 74.28819097 34.2297433 81.02595204 C34.23950806 88.7884503 34.26581104 96.55066283 34.30624419 104.31306046 C34.33646622 110.32257626 34.35121798 116.33201044 34.35452431 122.34160072 C34.35686817 125.92626982 34.36574099 129.51063339 34.39098549 133.09522057 C34.41873219 137.09971281 34.41441659 141.10357184 34.4074707 145.1081543 C34.42028076 146.28510864 34.43309082 147.46206299 34.44628906 148.67468262 C34.39564218 156.70102028 33.17047155 163.0961549 27.9609375 169.38671875 C21.64548788 174.42200966 14.28388115 177.95121678 7.03930664 181.44873047 C3.67999758 183.07795657 0.59977756 184.86708253 -2.5 186.9375 C-8.34569548 190.27317934 -15.56695433 189.88174828 -22.0625 189 C-27.05755619 186.59367377 -30.56761642 182.98976716 -33.0625 178 C-33.16562868 175.78385858 -33.20204978 173.56453489 -33.20967102 171.3460083 C-33.21334771 170.65432894 -33.2170244 169.96264959 -33.2208125 169.25001025 C-33.23186876 166.92089786 -33.23569646 164.59183005 -33.23950195 162.26269531 C-33.24576516 160.59727842 -33.25241184 158.93186292 -33.25941467 157.26644897 C-33.27683818 152.73325613 -33.28738022 148.20007385 -33.2956202 143.66685581 C-33.30076776 140.83554717 -33.30684361 138.00424181 -33.31313133 135.17293549 C-33.33218763 126.3170706 -33.34641754 117.46121407 -33.3547433 108.60533261 C-33.36451677 98.37794333 -33.39083729 88.15077042 -33.43124419 77.92345738 C-33.4613924 70.0219006 -33.47621096 62.12040587 -33.47952431 54.21879268 C-33.48187639 49.4979498 -33.49085704 44.77733795 -33.51598549 40.0565567 C-33.53924846 35.61435993 -33.54350666 31.17254659 -33.53322411 26.73030472 C-33.53272819 25.10090231 -33.53906504 23.47148114 -33.55278015 21.84213638 C-33.57047689 19.61494027 -33.56340534 17.38912352 -33.55024719 15.16192627 C-33.55263555 13.91641621 -33.5550239 12.67090614 -33.55748463 11.38765335 C-32.72838099 5.71330398 -29.31091359 1.70023119 -25.0625 -2 C-16.59401785 -4.82282738 -7.8704477 -3.91741741 0 0 Z " fill="#3F3BCC" transform="translate(127.0625,3)"/><path d="M0 0 C0 0.66 0 1.32 0 2 C0.66 2 1.32 2 2 2 C3.60558955 5.54856184 4.25066874 8.31224606 4.25396729 12.19921875 C4.25960693 13.22539307 4.26524658 14.25156738 4.27105713 15.30883789 C4.26700867 16.42379639 4.26296021 17.53875488 4.25878906 18.6875 C4.2622937 19.87013428 4.26579834 21.05276855 4.26940918 22.27124023 C4.27669452 25.50676941 4.27499921 28.74213448 4.26865101 31.97766113 C4.26357819 35.36792336 4.26828602 38.75817483 4.27142334 42.1484375 C4.27505925 47.84116578 4.27027374 53.53384211 4.26074219 59.2265625 C4.24985833 65.80277672 4.25338418 72.37886691 4.264395 78.95507812 C4.27347857 84.60702575 4.27474792 90.2589361 4.26951766 95.91088867 C4.26640384 99.2840376 4.26597242 102.65712828 4.27259064 106.03027344 C4.27766396 109.79110118 4.26993391 113.55169006 4.25878906 117.3125 C4.26283752 118.4274585 4.26688599 119.54241699 4.27105713 120.69116211 C4.26541748 121.71733643 4.25977783 122.74351074 4.25396729 123.80078125 C4.25321323 124.68934814 4.25245918 125.57791504 4.25168228 126.4934082 C3.96543017 129.34429306 3.28547377 131.44239177 2 134 C-1.43533841 136.39674773 -3.42251401 137.00995665 -7.625 136.9375 C-11.30594658 135.91501484 -12.70405547 135.002389 -15 132 C-15.9854145 129.04375649 -16.12791145 127.12364927 -16.13371277 124.04129028 C-16.13797775 123.0178653 -16.14224274 121.99444031 -16.14663696 120.94000244 C-16.14618378 119.81785339 -16.14573059 118.69570435 -16.14526367 117.53955078 C-16.14862228 116.35720856 -16.1519809 115.17486633 -16.15544128 113.95669556 C-16.16332061 110.7128293 -16.16661928 107.46900143 -16.16725707 104.22512674 C-16.1679678 102.19803372 -16.17010255 100.17094741 -16.17275429 98.14385605 C-16.18200702 91.07067184 -16.1860893 83.99750647 -16.18530273 76.92431641 C-16.18470209 70.33338309 -16.19525139 63.74253167 -16.2110464 57.15161908 C-16.22412753 51.49122614 -16.22948638 45.83085994 -16.22884732 40.170452 C-16.22859249 36.79055775 -16.2314358 33.41073626 -16.24202538 30.03085709 C-16.25180253 26.26024802 -16.24895605 22.48985062 -16.24291992 18.71923828 C-16.25134918 17.0420874 -16.25134918 17.0420874 -16.25994873 15.33105469 C-16.25575424 14.30199005 -16.25155975 13.27292542 -16.24723816 12.212677 C-16.24778293 11.32151247 -16.24832769 10.43034794 -16.24888897 9.51217842 C-15.97147019 6.71203232 -15.15602623 4.55288935 -14 2 C-13.34 2 -12.68 2 -12 2 C-12 1.34 -12 0.68 -12 0 C-7.91556885 -1.53166168 -4.20544343 -0.63081652 0 0 Z " fill="#3F3BCC" transform="translate(78,28)"/><path d="M0 0 C3 1 3 1 4.66323853 3.08447266 C6.30696996 6.66951309 6.42154854 9.78308412 6.38818359 13.6484375 C6.39344055 14.40191467 6.39869751 15.15539185 6.40411377 15.93170166 C6.41727698 18.41301433 6.40858904 20.89368123 6.3984375 23.375 C6.4004593 25.1046562 6.40337162 26.83431156 6.40713501 28.56396484 C6.41155337 32.18530408 6.40514309 35.80642102 6.39111328 39.42773438 C6.37402161 44.06486711 6.38386542 48.7014789 6.40183067 53.33859253 C6.41268174 56.90913809 6.40921611 60.47956056 6.4014473 64.05010986 C6.39944895 65.75970522 6.40189174 67.46931183 6.40888596 69.17889404 C6.41652232 71.57008379 6.40486632 73.96043505 6.38818359 76.3515625 C6.39729263 77.4068515 6.39729263 77.4068515 6.40658569 78.48345947 C6.35075234 82.81280454 5.64774469 85.55212183 3 89 C-0.47263273 90.73631636 -4.21193013 90.60190402 -8 90 C-10.75569447 87.81840855 -12.43588747 86.12822506 -14 83 C-14.11346149 80.62132007 -14.16778269 78.27120696 -14.17700195 75.89160156 C-14.18357315 75.1596759 -14.19014435 74.42775024 -14.19691467 73.67364502 C-14.21666064 71.24597067 -14.22831414 68.81835827 -14.23828125 66.390625 C-14.24235678 65.56147331 -14.2464323 64.73232162 -14.25063133 63.87804413 C-14.2714993 59.48803455 -14.28579689 55.09805628 -14.29516602 50.70800781 C-14.30622187 46.17734066 -14.34060984 41.64716581 -14.38033772 37.11667252 C-14.40650953 33.63017883 -14.41485842 30.14380221 -14.41844749 26.65721893 C-14.42331334 24.98749218 -14.43492736 23.31777066 -14.45348549 21.64813995 C-14.4778861 19.30702493 -14.47691065 16.96718035 -14.4699707 14.62597656 C-14.48278076 13.94003418 -14.49559082 13.2540918 -14.50878906 12.54736328 C-14.45563548 7.61128775 -13.08240488 4.80350075 -10 1 C-6.85658007 -0.57170996 -3.44228549 -0.23175783 0 0 Z " fill="#3F3BCC" transform="translate(45,51)"/></svg>