<?xml version="1.0" encoding="UTF-8"?><!DOCTYPE svg PUBLIC "-//W3C//DTD SVG 1.1//EN" "http://www.w3.org/Graphics/SVG/1.1/DTD/svg11.dtd"><svg xmlns="http://www.w3.org/2000/svg" version="1.1" width="208px" height="208px" style="shape-rendering:geometricPrecision; text-rendering:geometricPrecision; image-rendering:optimizeQuality; fill-rule:evenodd; clip-rule:evenodd" xmlns:xlink="http://www.w3.org/1999/xlink"><g><path style="opacity:0.956" fill="#857aeb" d="M 171.5,14.5 C 183.835,14.6605 190.835,20.8272 192.5,33C 173.04,84.4246 152.873,135.591 132,186.5C 122.295,196.739 112.295,197.072 102,187.5C 94.6667,172.833 87.3333,158.167 80,143.5C 79.3333,142.5 79.3333,141.5 80,140.5C 85,135.5 90,130.5 95,125.5C 102.255,139.01 109.255,152.677 116,166.5C 133.486,124.585 149.986,82.5851 165.5,40.5C 123.833,57.3333 82.1667,74.1667 40.5,91C 54.323,97.7446 67.9897,104.745 81.5,112C 76.2898,117.546 70.7898,122.712 65,127.5C 49.7717,120.136 34.605,112.636 19.5,105C 12.5574,98.8184 10.7241,91.3184 14,82.5C 16.1667,79 19,76.1667 22.5,74C 72.2653,54.1067 121.932,34.2734 171.5,14.5 Z"/></g></svg>