<?xml version="1.0" encoding="UTF-8"?><!DOCTYPE svg PUBLIC "-//W3C//DTD SVG 1.1//EN" "http://www.w3.org/Graphics/SVG/1.1/DTD/svg11.dtd"><svg xmlns="http://www.w3.org/2000/svg" version="1.1" width="120px" height="120px" style="shape-rendering:geometricPrecision; text-rendering:geometricPrecision; image-rendering:optimizeQuality; fill-rule:evenodd; clip-rule:evenodd" xmlns:xlink="http://www.w3.org/1999/xlink"><g><path style="opacity:0.869" fill="#ffffff" d="M 52.5,-0.5 C 57.1667,-0.5 61.8333,-0.5 66.5,-0.5C 76.5264,4.93158 86.6931,10.2649 97,15.5C 97.7203,17.1124 97.5536,18.6124 96.5,20C 91.7125,22.7288 86.7125,24.8955 81.5,26.5C 74.1968,23.518 66.8635,20.518 59.5,17.5C 52.1667,20.5 44.8333,23.5 37.5,26.5C 32.2875,24.8955 27.2875,22.7288 22.5,20C 21.1667,18.3333 21.1667,16.6667 22.5,15C 32.7494,10.0438 42.7494,4.87716 52.5,-0.5 Z"/></g><g><path style="opacity:0.904" fill="#00da9f" d="M 7.5,24.5 C 9.85684,24.3367 12.1902,24.5034 14.5,25C 29.537,33.1836 44.537,41.3502 59.5,49.5C 74.2908,41.6035 88.9575,33.4368 103.5,25C 108.937,23.3451 113.103,24.8451 116,29.5C 116.667,49.5 116.667,69.5 116,89.5C 114.951,90.5171 113.784,90.6838 112.5,90C 107.093,87.5475 101.926,84.7142 97,81.5C 96.8322,71.4834 96.3322,61.4834 95.5,51.5C 84.0481,58.8924 72.0481,65.2257 59.5,70.5C 46.9519,65.2257 34.9519,58.8924 23.5,51.5C 22.6678,61.4834 22.1678,71.4834 22,81.5C 17.4157,84.2083 12.9157,87.0416 8.5,90C 6.83333,90.6667 5.16667,90.6667 3.5,90C 2.34065,69.9065 2.17398,49.7398 3,29.5C 4.02496,27.313 5.52496,25.6464 7.5,24.5 Z"/></g><g><path style="opacity:0.873" fill="#ffffff" d="M 67.5,119.5 C 62.1667,119.5 56.8333,119.5 51.5,119.5C 39.5615,113.196 27.5615,106.862 15.5,100.5C 14.1667,98.8333 14.1667,97.1667 15.5,95.5C 19.7856,92.0516 24.6189,89.7183 30,88.5C 39.7526,92.9583 49.5859,97.2917 59.5,101.5C 67.8749,98.4795 75.8749,94.6461 83.5,90C 85.4233,89.1922 87.4233,88.6922 89.5,88.5C 94.7125,90.1045 99.7125,92.2712 104.5,95C 105.833,96.6667 105.833,98.3333 104.5,100C 91.7891,106.019 79.4558,112.519 67.5,119.5 Z"/></g></svg>