<?xml version="1.0" encoding="UTF-8" standalone="no"?><svg width="800" height="800" viewBox="0 0 24 24" fill="none" version="1.1" id="svg3" xmlns="http://www.w3.org/2000/svg" xmlns:svg="http://www.w3.org/2000/svg"><defs id="defs3" /><g id="g3" transform="matrix(0.9159416,0,0,0.9159416,1.0087008,1.0087007)" style="stroke-width:1.09177"><path d="m 5.6348762,11.450283 2.2114494,0.73703 h 1.57e-5 c 1.4597293,0.48665 2.1895467,0.729974 2.7130407,1.253311 0.523336,0.523493 0.766661,1.253311 1.25331,2.713103 v 0 l 0.73703,2.211402 c 1.229794,3.689381 1.844691,5.534072 2.974771,5.534072 1.130081,0 1.744978,-1.844691 2.974772,-5.534072 v 0 L 22.948252,5.0180578 C 23.813529,2.4220862 24.246245,1.1241083 23.56111,0.43894201 22.875975,-0.24620861 21.577982,0.18644548 18.981995,1.0517693 L 5.6348762,5.5007879 C 1.9454795,6.7305973 0.10077324,7.3454941 0.10077324,8.4755121 c 0,1.1300807 1.84469056,1.7449779 5.53408726,2.9747709 z" fill="#2a4157" fill-opacity="0.24" id="path2" style="fill:#426191;fill-opacity:1;stroke-width:0.865848" /><path d="M 8.5095582,14.498899 5.277242,13.421497 C 4.8182487,13.268478 4.3143374,13.335894 3.9117854,13.604304 L 2.2054545,14.74191 c -0.905993,0.603922 -0.6648161,1.996298 0.3915303,2.260318 l 3.0643248,0.766034 c 0.2808583,0.07024 0.5001641,0.289576 0.5703709,0.570371 l 0.7660812,3.06445 c 0.2640827,1.056237 1.6564117,1.297524 2.2603338,0.391484 l 1.1376065,-1.70641 c 0.26841,-0.402458 0.335826,-0.906353 0.182807,-1.365409 L 9.5011068,15.490385 C 9.3451092,15.022235 8.9777076,14.654896 8.5095582,14.498899 Z" fill="#222222" id="path3" style="fill:#a55f3d;fill-opacity:1;stroke-width:1.09177" /></g></svg>