<?xml version="1.0" encoding="UTF-8" standalone="no"?><svg fill="#000000" width="800px" height="800px" viewBox="0 0 24 24" version="1.1" id="svg3" sodipodi:docname="block-toys.svg" inkscape:version="1.3.2 (091e20e, 2023-11-25, custom)" xmlns:inkscape="http://www.inkscape.org/namespaces/inkscape" xmlns:sodipodi="http://sodipodi.sourceforge.net/DTD/sodipodi-0.dtd" xmlns="http://www.w3.org/2000/svg" xmlns:svg="http://www.w3.org/2000/svg"><defs id="defs3" /><sodipodi:namedview id="namedview3" pagecolor="#ffffff" bordercolor="#000000" borderopacity="0.25" inkscape:showpageshadow="2" inkscape:pageopacity="0.0" inkscape:pagecheckerboard="0" inkscape:deskcolor="#d1d1d1" inkscape:zoom="0.53625" inkscape:cx="400.9324" inkscape:cy="400" inkscape:window-width="1366" inkscape:window-height="705" inkscape:window-x="-8" inkscape:window-y="-8" inkscape:window-maximized="1" inkscape:current-layer="svg3" /><path d="M16,4a1,1,0,0,0-1-1H9A1,1,0,0,0,8,4v7h8Z" id="path1" style="fill:#a55f3d;fill-opacity:1" /><path d="M3,14v6a1,1,0,0,0,1,1h7V13H4A1,1,0,0,0,3,14Z" id="path2" style="fill:#426191;fill-opacity:1" /><path d="M20,13H13v8h7a1,1,0,0,0,1-1V14A1,1,0,0,0,20,13Z" id="path3" style="fill:#426191;fill-opacity:1" /></svg>