<svg xmlns="http://www.w3.org/2000/svg" xmlns:v="https://vecta.io/nano" width="162.64" height="162.64" fill-rule="evenodd"><g fill="#4e48e0"><path d="M148.117 50.867c-.583-.848-1.553-1.283-2.531-1.283H89.895L117.666 5.23c.715-1.139.755-2.698-.113-3.948C116.964.433 115.984 0 115.002 0H67.045c-4.815 0-9.314 2.58-12.011 6.887L.532 93.939a3.61 3.61 0 0 0 .116 3.949c.582.847 1.552 1.281 2.531 1.281h55.663l-27.774 44.365c-.5.8-.653 1.807-.425 2.767.351 1.487 1.669 2.463 3.09 2.463h47.929c4.851 0 9.384-2.6 12.1-6.939l26.699-42.656h.001l27.769-44.354c.714-1.139.744-2.7-.114-3.948"/><path d="M120.467 99.159l-26.705 42.665c-2.716 4.34-7.25 6.939-12.1 6.939H33.733c-1.421 0-2.739-.975-3.09-2.462-.228-.96-.075-1.967.425-2.767l27.779-44.375h61.62z"/></g><path d="M89.859 49.584h55.727c.978 0 1.948.435 2.531 1.282.859 1.249.827 2.809.115 3.949l-27.769 44.354H58.819l31.04-49.585z" fill="#1c81c1"/><path d="M3.179 99.169c-.978 0-1.948-.434-2.53-1.281-.86-1.25-.83-2.809-.116-3.948L55.035 6.887C57.731 2.58 62.231 0 67.045 0h47.957c.982 0 1.963.434 2.552 1.282.867 1.25.827 2.809.113 3.949L58.848 99.169H3.179z" fill="#5cc4cd"/></svg>