<?xml version="1.0" encoding="UTF-8" standalone="no"?><svg fill="#000000" version="1.1" id="Layer_1" width="800px" height="800px" viewBox="0 0 20 20" enable-background="new 0 0 20 20" xml:space="preserve" sodipodi:docname="list-1.svg" inkscape:version="1.3.2 (091e20e, 2023-11-25, custom)" xmlns:inkscape="http://www.inkscape.org/namespaces/inkscape" xmlns:sodipodi="http://sodipodi.sourceforge.net/DTD/sodipodi-0.dtd" xmlns="http://www.w3.org/2000/svg" xmlns:svg="http://www.w3.org/2000/svg"><defs id="defs6"></defs><sodipodi:namedview id="namedview6" pagecolor="#ffffff" bordercolor="#000000" borderopacity="0.25" inkscape:showpageshadow="2" inkscape:pageopacity="0.0" inkscape:pagecheckerboard="0" inkscape:deskcolor="#d1d1d1" inkscape:zoom="0.63625" inkscape:cx="400" inkscape:cy="400" inkscape:window-width="1366" inkscape:window-height="705" inkscape:window-x="-8" inkscape:window-y="-8" inkscape:window-maximized="1" inkscape:current-layer="Layer_1" /><g id="SVGRepo_bgCarrier" stroke-width="0" /><g id="SVGRepo_tracerCarrier" stroke-linecap="round" stroke-linejoin="round" /><path d="M 19,5 H 6 C 5.4,5 5,4.6 5,4 5,3.4 5.4,3 6,3 h 13 c 0.6,0 1,0.4 1,1 0,0.6 -0.4,1 -1,1 z" id="path1" style="fill:#426191;fill-opacity:1" /><path d="M 10,11 H 6 C 5.4,11 5,10.6 5,10 5,9.4 5.4,9 6,9 h 4 c 0.6,0 1,0.4 1,1 0,0.6 -0.4,1 -1,1 z" id="path2" style="fill:#426191;fill-opacity:1" /><path d="M 19,17 H 6 C 5.4,17 5,16.6 5,16 5,15.4 5.4,15 6,15 h 13 c 0.6,0 1,0.4 1,1 0,0.6 -0.4,1 -1,1 z" id="path3" style="fill:#426191;fill-opacity:1" /><path d="M 2,5 H 1 C 0.4,5 0,4.6 0,4 0,3.4 0.4,3 1,3 H 2 C 2.6,3 3,3.4 3,4 3,4.6 2.6,5 2,5 Z" id="path4" style="fill:#a55f3d;fill-opacity:1" /><path d="M 2,11 H 1 C 0.4,11 0,10.6 0,10 0,9.4 0.4,9 1,9 h 1 c 0.6,0 1,0.4 1,1 0,0.6 -0.4,1 -1,1 z" id="path5" style="fill:#a55f3d;fill-opacity:1" /><path d="M 2,17 H 1 C 0.4,17 0,16.6 0,16 0,15.4 0.4,15 1,15 h 1 c 0.6,0 1,0.4 1,1 0,0.6 -0.4,1 -1,1 z" id="path6" style="fill:#a55f3d;fill-opacity:1" /></svg>